<svg width="21" height="22" viewBox="0 0 21 22" fill="none" xmlns="http://www.w3.org/2000/svg">
<line y1="-0.5" x2="17.7668" y2="-0.5" transform="matrix(0.131331 0.991339 -0.994988 0.0999926 6.22217 3.38708)" stroke="#FB37FF"/>
<line y1="-0.5" x2="12.2183" y2="-0.5" transform="matrix(-0.0636566 0.997972 -0.998831 -0.0483306 6.22217 4.06445)" stroke="#FB37FF"/>
<line y1="-0.5" x2="12.8944" y2="-0.5" transform="matrix(0.0603188 0.998179 -0.998951 0.0457923 14 3.38708)" stroke="#FB37FF"/>
<line y1="-0.5" x2="7.80839" y2="-0.5" transform="matrix(0.298824 0.954308 -0.972929 0.231106 3.11108 8.8064)" stroke="#FB37FF"/>
<line y1="-0.5" x2="7.80839" y2="-0.5" transform="matrix(-0.298824 0.954308 -0.972929 -0.231106 17.1111 9.48389)" stroke="#FB37FF"/>
<line x1="17.8889" y1="13.0483" x2="21" y2="13.0483" stroke="#FB37FF"/>
<line y1="13.0483" x2="3.11111" y2="13.0483" stroke="#FB37FF"/>
<line y1="-0.5" x2="4.13826" y2="-0.5" transform="matrix(0.187948 0.982179 -0.989628 0.143656 17.1111 9.48389)" stroke="#FB37FF"/>
<line y1="-0.5" x2="4.13826" y2="-0.5" transform="matrix(-0.187948 0.982179 -0.989628 -0.143656 3.11108 8.8064)" stroke="#FB37FF"/>
<line y1="-0.5" x2="17.7668" y2="-0.5" transform="matrix(-0.131331 0.991339 -0.994988 -0.0999926 14 3.38708)" stroke="#FB37FF"/>
<line y1="-0.5" x2="21.0575" y2="-0.5" transform="matrix(-0.0738717 0.997268 -0.998425 -0.056103 10.1111 0)" stroke="#FB37FF"/>
<line y1="-0.5" x2="20.382" y2="-0.5" transform="matrix(0.07632 0.997083 -0.998318 0.0579669 10.1111 0.67749)" stroke="#FB37FF"/>
</svg>
