<svg width="31" height="31" viewBox="0 0 31 31" fill="none" xmlns="http://www.w3.org/2000/svg">
<path d="M4.31746 10.0465C4.60957 9.34131 5.03772 8.70054 5.57747 8.1608C6.11721 7.62105 6.75798 7.1929 7.46319 6.90079C8.1684 6.60868 8.92424 6.45833 9.68755 6.45833C10.4509 6.45833 11.2067 6.60868 11.9119 6.90079C12.6171 7.1929 13.2579 7.62105 13.7976 8.1608L15.5001 9.86322L17.2025 8.1608C18.2925 7.07074 19.771 6.45835 21.3126 6.45835C22.8541 6.45835 24.3326 7.07074 25.4226 8.1608C26.5127 9.25086 27.1251 10.7293 27.1251 12.2709C27.1251 13.8125 26.5127 15.2909 25.4226 16.381L15.5001 26.3036L5.57747 16.381C5.03772 15.8412 4.60957 15.2005 4.31746 14.4952C4.02535 13.79 3.875 13.0342 3.875 12.2709C3.875 11.5076 4.02535 10.7517 4.31746 10.0465Z" stroke="#929292" stroke-width="2" stroke-linecap="round" stroke-linejoin="round"/>
</svg>
