<svg width="15" height="14" viewBox="0 0 15 14" fill="none" xmlns="http://www.w3.org/2000/svg">
<path d="M2.04051 4.53706C2.17857 4.21858 2.38092 3.9292 2.63602 3.68545C2.89111 3.44169 3.19395 3.24833 3.52724 3.11641C3.86054 2.98449 4.21776 2.91659 4.57852 2.91659C4.93928 2.91659 5.2965 2.98449 5.6298 3.11641C5.96309 3.24833 6.26593 3.44169 6.52102 3.68545L7.32562 4.45428L8.13021 3.68545C8.6454 3.19316 9.34414 2.9166 10.0727 2.9166C10.8013 2.9166 11.5 3.19316 12.0152 3.68545C12.5304 4.17773 12.8198 4.84542 12.8198 5.54162C12.8198 6.23782 12.5304 6.9055 12.0152 7.39779L7.32562 11.879L2.63602 7.39779C2.38092 7.15403 2.17857 6.86465 2.04051 6.54617C1.90246 6.22769 1.8314 5.88634 1.8314 5.54162C1.8314 5.19689 1.90246 4.85555 2.04051 4.53706Z" stroke="white" stroke-width="2" stroke-linecap="round" stroke-linejoin="round"/>
</svg>
