<svg width="24" height="24" viewBox="0 0 24 24" fill="none" xmlns="http://www.w3.org/2000/svg">
<path d="M18.5029 12C18.5029 12.2762 18.2789 12.5002 18.0026 12.5002C17.7264 12.5002 17.5024 12.2762 17.5024 12C17.5024 11.7237 17.7264 11.4998 18.0026 11.4998C18.2789 11.4998 18.5029 11.7237 18.5029 12" stroke="#0B141F" stroke-width="1.5" stroke-linecap="round" stroke-linejoin="round"/>
<path d="M12.5004 12C12.5004 12.2762 12.2765 12.5002 12.0002 12.5002C11.724 12.5002 11.5 12.2762 11.5 12C11.5 11.7237 11.724 11.4998 12.0002 11.4998C12.2765 11.4998 12.5004 11.7237 12.5004 12" stroke="#0B141F" stroke-width="1.5" stroke-linecap="round" stroke-linejoin="round"/>
<path d="M6.49773 12C6.49773 12.2762 6.27378 12.5002 5.99752 12.5002C5.72127 12.5002 5.49731 12.2762 5.49731 12C5.49731 11.7237 5.72127 11.4998 5.99752 11.4998C6.27378 11.4998 6.49773 11.7237 6.49773 12" stroke="#0B141F" stroke-width="1.5" stroke-linecap="round" stroke-linejoin="round"/>
</svg>
